# Blender v2.81 (sub 16) OBJ File: 'cube.blend'
# www.blender.org
mtllib cube.mtl
o Plane_Plane.001
v -0.050296 0.680291 -1.002216
v -1.857278 0.680291 -1.002216
v -0.050296 -0.413835 -1.002216
v -1.857278 -0.413835 -1.002216
v 1.844286 0.680291 -0.282363
v 0.037303 0.680291 -0.282363
v 1.844286 -0.413835 -0.282363
v 0.037303 -0.413835 -0.282363
vt 0.000000 0.000000
vt 1.000000 0.000000
vt 1.000000 1.000000
vt 0.000000 1.000000
vt 0.000000 0.000000
vt 1.000000 0.000000
vt 1.000000 1.000000
vt 0.000000 1.000000
vn 0.0000 0.0000 1.0000
usemtl MARSINDX_01
s off
f 4/1/1 3/2/1 1/3/1 2/4/1
usemtl TestTexture
f 8/5/1 7/6/1 5/7/1 6/8/1
