# Blender v2.80 (sub 75) OBJ File: ''
# www.blender.org
mtllib test.mtl
o Plane
v -0.471065 -0.135641 0.480000
v 0.471065 -0.135641 0.480000
v -0.471065 -0.135641 -0.480000
v 0.471065 -0.135641 -0.480000
vt 0.000000 0.000000
vt 1.000000 0.000000
vt 1.000000 1.000000
vt 0.000000 1.000000
vn 0.0000 1.0000 0.0000
usemtl None
s off
f 1/1/1 2/2/1 4/3/1 3/4/1
o Plane.001
v -0.172140 0.036582 0.000000
v 0.172140 0.036582 0.000000
v -0.172140 0.287913 -0.000000
v 0.172140 0.287913 -0.000000
vt 0.000000 0.000000
vt 1.000000 0.000000
vt 1.000000 1.000000
vt 0.000000 1.000000
vn 0.0000 0.0000 1.0000
usemtl None
s off
f 5/5/2 6/6/2 8/7/2 7/8/2
